<?xml version="1.0" encoding="UTF-8"?>
<svg xmlns="http://www.w3.org/2000/svg" viewBox="0 0 1200 630" width="1200" height="630">
  <defs>
    <pattern id="grain" width="3" height="3" patternUnits="userSpaceOnUse">
      <circle cx="1.5" cy="1.5" r="0.4" fill="#f5f0e2" opacity="0.04" />
    </pattern>
  </defs>
  <rect width="1200" height="630" fill="#0b0b10" />
  <rect width="1200" height="630" fill="url(#grain)" />

  <!-- Top rule + masthead -->
  <line x1="84" y1="92" x2="1116" y2="92" stroke="#2a2a25" stroke-width="1" />
  <g font-family="ui-monospace, 'JetBrains Mono', Menlo, monospace" font-size="16" letter-spacing="3" fill="#9a9a8e">
    <text x="84" y="76">VOL. I &#183; NO. 042 &#183; LITVM LITEFORGE</text>
    <text x="1116" y="76" text-anchor="end">CHAIN ID 4441 &#183; ZKLTC</text>
  </g>

  <!-- Center: mark + wordmark -->
  <g transform="translate(120 200) scale(4.3)">
    <path d="M 34.60 30.70 L 32.00 2.00 L 29.40 30.70 Z" fill="#cdb380" />
    <path d="M 34.40 32.57 L 50.03 13.97 L 31.43 29.60 Z" fill="#f5f0e2" />
    <path d="M 33.30 34.60 L 62.00 32.00 L 33.30 29.40 Z" fill="#f5f0e2" />
    <path d="M 31.43 34.40 L 50.03 50.03 L 34.40 31.43 Z" fill="#f5f0e2" />
    <path d="M 29.40 33.30 L 32.00 62.00 L 34.60 33.30 Z" fill="#f5f0e2" />
    <path d="M 29.60 31.43 L 13.97 50.03 L 32.57 34.40 Z" fill="#f5f0e2" />
    <path d="M 30.70 29.40 L 2.00 32.00 L 30.70 34.60 Z" fill="#f5f0e2" />
    <path d="M 32.57 29.60 L 13.97 13.97 L 29.60 32.57 Z" fill="#f5f0e2" />
    <circle cx="32" cy="32" r="1.6" fill="#f5f0e2" />
  </g>
  <g font-family="Fraunces, 'Times New Roman', serif" font-weight="300">
    <text x="430" y="370" font-size="180" fill="#f5f0e2" letter-spacing="-6">LitGive</text>
  </g>
  <g font-family="Fraunces, 'Times New Roman', serif" font-weight="400" font-style="italic">
    <text x="432" y="430" font-size="34" fill="#bdbdb0">Donations, transparent by default.</text>
  </g>

  <!-- Bottom rule + meta -->
  <line x1="84" y1="555" x2="1116" y2="555" stroke="#2a2a25" stroke-width="1" />
  <g font-family="ui-monospace, 'JetBrains Mono', Menlo, monospace" font-size="16" letter-spacing="3" fill="#9a9a8e">
    <text x="84" y="585">ONCHAIN DONATION MARKETPLACE</text>
    <text x="1116" y="585" text-anchor="end">LITGIVE.APP</text>
  </g>
</svg>
