<?xml version="1.0" encoding="UTF-8"?>
<svg xmlns="http://www.w3.org/2000/svg" viewBox="0 0 1500 500" width="1500" height="500">
  <rect width="1500" height="500" fill="#0b0b10" />

  <line x1="80" y1="80" x2="1420" y2="80" stroke="#2a2a25" stroke-width="1" />
  <g font-family="ui-monospace, 'JetBrains Mono', Menlo, monospace" font-size="14" letter-spacing="3" fill="#9a9a8e">
    <text x="80" y="68">LITGIVE &#183; LITVM LITEFORGE</text>
    <text x="1420" y="68" text-anchor="end">DONATIONS, TRANSPARENT BY DEFAULT</text>
  </g>

  <g transform="translate(180 230) scale(3.4)">
    <path d="M 34.60 30.70 L 32.00 2.00 L 29.40 30.70 Z" fill="#cdb380" />
    <path d="M 34.40 32.57 L 50.03 13.97 L 31.43 29.60 Z" fill="#f5f0e2" />
    <path d="M 33.30 34.60 L 62.00 32.00 L 33.30 29.40 Z" fill="#f5f0e2" />
    <path d="M 31.43 34.40 L 50.03 50.03 L 34.40 31.43 Z" fill="#f5f0e2" />
    <path d="M 29.40 33.30 L 32.00 62.00 L 34.60 33.30 Z" fill="#f5f0e2" />
    <path d="M 29.60 31.43 L 13.97 50.03 L 32.57 34.40 Z" fill="#f5f0e2" />
    <path d="M 30.70 29.40 L 2.00 32.00 L 30.70 34.60 Z" fill="#f5f0e2" />
    <path d="M 32.57 29.60 L 13.97 13.97 L 29.60 32.57 Z" fill="#f5f0e2" />
    <circle cx="32" cy="32" r="1.6" fill="#f5f0e2" />
  </g>

  <g font-family="Fraunces, 'Times New Roman', serif" font-weight="300">
    <text x="430" y="295" font-size="148" fill="#f5f0e2" letter-spacing="-5">LitGive</text>
  </g>
  <g font-family="ui-monospace, 'JetBrains Mono', Menlo, monospace" font-size="18" letter-spacing="3.2" fill="#9a9a8e">
    <text x="432" y="335">ONCHAIN DONATIONS ON LITVM</text>
  </g>

  <line x1="80" y1="430" x2="1420" y2="430" stroke="#2a2a25" stroke-width="1" />
</svg>
